HIERARCHY
ROOT Hips
{
  OFFSET 267.745 86.9975 -272.335
  CHANNELS 6 Xposition Yposition Zposition Zrotation Xrotation Yrotation
  JOINT LeftUpLeg
  {
    OFFSET 8.64259 1.95398 -2.38835
    CHANNELS 3 Zrotation Xrotation Yrotation
    JOINT LeftLeg
    {
      OFFSET 43.7702 0 0
      CHANNELS 3 Zrotation Xrotation Yrotation
      JOINT LeftFoot
      {
        OFFSET 40.6238 0 0
        CHANNELS 3 Zrotation Xrotation Yrotation
        JOINT LeftToeBase
        {
          OFFSET 12.7242 0 0
          CHANNELS 3 Zrotation Xrotation Yrotation
          End Site
          {
            OFFSET 0 0 0
          }
        }
      }
    }
  }
  JOINT RightUpLeg
  {
    OFFSET -8.2249 1.95398 -2.59336
    CHANNELS 3 Zrotation Xrotation Yrotation
    JOINT RightLeg
    {
      OFFSET 43.5653 0 0
      CHANNELS 3 Zrotation Xrotation Yrotation
      JOINT RightFoot
      {
        OFFSET 40.6238 0 0
        CHANNELS 3 Zrotation Xrotation Yrotation
        JOINT RightToeBase
        {
          OFFSET 12.7242 0 0
          CHANNELS 3 Zrotation Xrotation Yrotation
          End Site
          {
            OFFSET 0 0 0
          }
        }
      }
    }
  }
  JOINT Spine
  {
    OFFSET 0.165834 0.87714 6.61349
    CHANNELS 3 Zrotation Xrotation Yrotation
    JOINT Spine1
    {
      OFFSET 7.38963 1.71661e-005 0
      CHANNELS 3 Zrotation Xrotation Yrotation
      JOINT Spine2
      {
        OFFSET 11.9445 1.14441e-005 0
        CHANNELS 3 Zrotation Xrotation Yrotation
        JOINT Spine3
        {
          OFFSET 14.7254 4.19617e-005 0
          CHANNELS 3 Zrotation Xrotation Yrotation
          JOINT Spine4
          {
            OFFSET 10.9679 0 0
            CHANNELS 3 Zrotation Xrotation Yrotation
            JOINT RightShoulder
            {
              OFFSET 2.46616 -1.6653 3.69651
              CHANNELS 3 Zrotation Xrotation Yrotation
              JOINT RightArm
              {
                OFFSET 13.0012 0 0
                CHANNELS 3 Zrotation Xrotation Yrotation
                JOINT RightForeArm
                {
                  OFFSET 28.7848 1.52588e-005 0
                  CHANNELS 3 Zrotation Xrotation Yrotation
                  JOINT RightHand
                  {
                    OFFSET 26.5688 1.52588e-005 0
                    CHANNELS 3 Zrotation Xrotation Yrotation
                    End Site
                    {
                      OFFSET 0 0 0
                    }
                  }
                }
              }
            }
            JOINT LeftShoulder
            {
              OFFSET 2.38034 -1.29275 -3.7523
              CHANNELS 3 Zrotation Xrotation Yrotation
              JOINT LeftArm
              {
                OFFSET 16.3182 6.10352e-005 0
                CHANNELS 3 Zrotation Xrotation Yrotation
                JOINT LeftForeArm
                {
                  OFFSET 27.0901 0 0
                  CHANNELS 3 Zrotation Xrotation Yrotation
                  JOINT LeftHand
                  {
                    OFFSET 24.5451 1.52588e-005 0
                    CHANNELS 3 Zrotation Xrotation Yrotation
                    End Site
                    {
                      OFFSET 0 0 0
                    }
                  }
                }
              }
            }
            JOINT Neck
            {
              OFFSET 5.0226 -0.0266342 0
              CHANNELS 3 Zrotation Xrotation Yrotation
              JOINT Head
              {
                OFFSET 6.69364 2.86102e-005 0
                CHANNELS 3 Zrotation Xrotation Yrotation
                End Site
                {
                  OFFSET 0 0 0
                }
              }
            }
          }
        }
      }
    }
  }
}
MOTION
Frames:	13
Frame Time:	0.0416667
-0.794479 96.9836 -12.7645 128.586 -85.5969 128.492 -174.378 2.52608 91.5796 -13.0073 5.63484 2.30104 65.1615 2.65236 -1.04509 28.0975 -0.162084 1.93386 174.084 1.97199 86.5297 -15.5979 -4.19734 -0.0015667 67.8078 -2.54599 3.95344 28.3829 0.186732 -0.931708 -0.354497 7.02515 -90.1589 12.8164 -0.780002 -0.224486 1.14568 -0.789126 -0.189946 -21.3908 -0.676472 -0.448538 -1.37815 -0.676476 -0.448544 99.1586 -53.5595 -86.6612 27.7258 -18.2853 -1.20795 7.09586 9.98796 -50.8265 2.74335 -0.19873 -10.8746 -84.1186 -53.9321 87.7648 -25.4148 17.0415 -13.0719 -17.759 -12.9076 -41.2967 -4.70875 0.0420043 -10.8623 14.4183 -0.187327 4.16382 -21.5844 -0.715595 -3.72324 
-0.840896 96.9643 -12.7363 131.531 -85.8615 131.366 -174.321 2.35009 91.5836 -12.7205 5.22057 2.24748 65.0941 2.5297 -1.38593 28.2816 -0.15842 1.75898 174.172 1.92662 86.4798 -15.5616 -4.10864 -0.166406 68.4089 -2.68694 4.76051 27.4908 0.44983 -1.25513 -0.328235 7.02551 -90.1419 12.8289 -0.719692 -0.197319 1.15811 -0.727674 -0.165459 -21.3782 -0.627116 -0.404504 -1.36556 -0.627119 -0.40451 99.1212 -53.6711 -86.7108 27.6883 -18.4726 -1.12068 7.21903 10.116 -50.9766 2.73587 -0.198759 -10.8295 -84.0065 -53.8246 87.9164 -25.5246 16.8405 -13.0932 -17.6831 -12.8836 -40.9629 -5.53738 0.104742 -11.4461 13.5099 -0.0410528 3.64627 -20.1563 -0.509098 -3.32707 
-0.805213 96.9807 -12.7393 133.312 -85.8137 133.309 -174.196 2.32324 91.7344 -12.9335 5.15146 2.24422 65.2333 2.53383 -1.41074 28.1025 -0.126607 1.64117 174.167 1.81025 86.616 -15.5357 -4.31292 -0.0871318 68.0417 -2.68234 4.25133 27.7101 0.389042 -1.21762 -0.31307 7.02505 -90.1635 12.8147 -0.699951 -0.243307 1.14389 -0.709975 -0.21231 -21.3922 -0.594468 -0.442412 -1.3796 -0.594471 -0.442416 99.2347 -53.7203 -86.5393 27.533 -18.6188 -1.29957 7.26205 10.1688 -50.5593 2.60458 -0.195398 -11.0747 -84.0509 -53.8141 87.8506 -25.546 16.7754 -13.1445 -17.7822 -13.0143 -40.8457 -5.68433 0.114226 -11.2761 13.347 -0.145641 3.61659 -19.904 -0.581052 -3.50026 
-0.81114 96.9804 -12.7391 132.971 -85.8506 132.901 -174.143 2.36869 91.7111 -12.9326 5.46746 2.14105 65.1896 2.62386 -1.08054 28.2666 -0.136049 1.58814 174.153 1.92634 86.543 -15.6534 -4.33596 -0.0937273 68.083 -2.6182 4.31846 27.8737 0.355407 -1.30935 -0.31215 7.02512 -90.1603 12.8226 -0.696567 -0.235407 1.15183 -0.706322 -0.20397 -21.3843 -0.593088 -0.435541 -1.37169 -0.593085 -0.435537 99.3052 -53.7522 -86.4323 27.4595 -18.6379 -1.435 7.36222 10.2061 -50.5415 2.28579 -0.175114 -10.9044 -84.0823 -53.8516 87.8091 -25.5046 16.7728 -13.2287 -17.9142 -13.2024 -40.7753 -5.66624 0.111781 -11.3386 13.4689 -0.303818 3.5979 -19.7121 -0.75084 -3.42992 
-0.803425 96.9683 -12.7323 133.001 -85.8171 132.995 -174.22 2.27086 91.7217 -12.7538 5.04032 2.26252 65.2379 2.58131 -1.4186 28.1279 -0.106468 1.45909 174.18 1.81042 86.6142 -15.502 -4.35162 -0.0920188 68.05 -2.6566 4.29236 27.9577 0.358486 -1.56302 -0.325638 7.02711 -90.1665 12.819 -0.726334 -0.245959 1.14825 -0.736448 -0.213764 -21.388 -0.618837 -0.45289 -1.37533 -0.618834 -0.452895 99.2174 -53.7922 -86.5614 27.4086 -18.6649 -1.45128 7.20434 10.1295 -50.5227 2.74446 -0.203827 -11.0877 -84.0386 -53.7583 87.8625 -25.6985 16.5861 -13.1983 -17.632 -12.9141 -40.8337 -5.78899 0.110443 -11.1008 13.6914 -0.245411 3.51879 -19.9635 -0.69456 -3.27343 
-0.840384 96.9768 -12.7474 133.24 -85.7472 133.192 -174.146 2.31494 91.749 -12.9656 5.20618 2.19618 65.304 2.59498 -1.38829 27.849 -0.109382 1.70129 174.168 1.79741 86.5974 -15.5614 -4.37367 -0.0899668 67.9295 -2.61674 4.13587 28.1101 0.296373 -1.3356 -0.323633 7.03991 -90.1622 12.7934 -0.720248 -0.23832 1.12267 -0.730039 -0.206399 -21.4136 -0.615323 -0.443773 -1.4009 -0.615325 -0.443779 99.2408 -53.7841 -86.5267 27.3563 -18.5362 -1.60697 7.03318 10.0016 -50.6016 2.86335 -0.210792 -11.1108 -84.086 -53.5469 87.772 -26.0186 16.3539 -13.4484 -17.2541 -12.5981 -40.5995 -6.00297 0.129868 -11.3193 14.2258 -0.389956 3.38386 -20.5614 -0.784968 -3.37135 
-0.844086 96.983 -12.7445 134.986 -85.8056 134.942 -174.127 2.21301 91.7618 -12.8732 5.10628 2.19317 65.1522 2.47946 -1.40858 28.2206 -0.137964 1.63749 174.19 1.79544 86.5937 -15.6313 -4.40259 -0.124166 67.8761 -2.53925 4.28229 28.4056 0.19672 -1.1008 -0.297329 7.04621 -90.1743 12.7808 -0.67384 -0.268132 1.10997 -0.684978 -0.238222 -21.426 -0.562096 -0.458254 -1.41335 -0.562098 -0.458263 99.2379 -53.5553 -86.543 27.2939 -18.5972 -1.95021 7.6959 10.4792 -50.5871 2.8398 -0.213335 -11.2431 -84.0935 -53.4832 87.7542 -26.2784 15.7796 -14.0809 -17.3394 -12.8959 -40.0444 -6.36659 0.16312 -11.5944 14.4973 -0.427799 3.44972 -20.8119 -0.846862 -3.32418 
-0.843783 96.9814 -12.7149 136.543 -85.8926 136.302 -174.089 1.92773 91.6275 -12.421 5.19478 2.06871 64.9741 2.4933 -1.20542 28.2268 -0.137736 1.63295 174.11 1.87844 86.37 -15.8398 -4.45671 -0.163007 68.3237 -2.71234 4.53535 27.6889 0.393957 -1.21305 -0.282685 7.04064 -90.1591 12.792 -0.637478 -0.242001 1.12124 -0.647512 -0.213713 -21.4147 -0.535274 -0.422406 -1.40204 -0.535281 -0.422406 99.1 -53.1557 -86.771 27.2001 -19.0429 -2.39683 8.02145 10.7249 -50.5627 2.16944 -0.161311 -10.5549 -83.9585 -53.3387 87.9358 -26.6578 15.0053 -15.0609 -18.0771 -14.0421 -39.424 -7.12084 0.210438 -11.6266 14.4055 -0.41805 3.50147 -20.628 -0.85759 -3.29875 
-0.902002 96.9748 -12.7023 140.723 -86.0824 140.375 -173.911 1.75686 91.6329 -12.3009 5.25985 1.87833 65.036 2.6034 -0.86795 28.0588 -0.137292 1.76358 174.218 2.01283 86.3557 -16.0832 -4.75639 -0.282992 68.1019 -2.63512 4.24614 28.2348 0.214896 -0.827271 -0.244261 7.01724 -90.149 12.8389 -0.556328 -0.23109 1.16806 -0.565968 -0.20639 -21.3676 -0.461163 -0.387609 -1.355 -0.461162 -0.387618 99.0563 -52.4893 -86.8742 27.0803 -20.0874 -3.37253 8.64359 11.2337 -50.1849 1.62245 -0.141873 -10.9284 -83.9769 -53.053 87.8791 -26.8035 14.751 -16.2536 -19.0773 -15.4412 -39.2234 -6.34465 0.155962 -11.4686 13.904 -0.357581 3.70332 -20.5181 -0.825309 -3.39549 
-0.827398 96.9589 -12.9036 125.668 -85.1328 125.624 -174.408 2.6974 91.6572 -13.1505 5.45379 2.37869 65.2058 2.55229 -1.58107 27.9759 -0.0794696 1.36284 174.154 1.93188 86.6556 -15.7078 -3.56801 -0.0691352 67.8676 -2.46901 4.21799 28.4943 0.173435 -1.09745 -0.395931 6.96917 -90.1687 12.9349 -0.866974 -0.232357 1.26425 -0.876353 -0.193984 -21.2726 -0.75706 -0.482194 -1.25997 -0.757057 -0.482199 99.2013 -51.9967 -86.6816 26.6252 -21.365 -4.88538 10.2289 12.4295 -50.3176 0.87746 -0.106169 -11.1274 -83.8478 -52.998 88.0627 -26.2206 14.7776 -17.9725 -19.5783 -16.0154 -39.3952 -6.28662 0.143629 -11.1994 13.5988 -0.427475 3.80843 -20.9783 -0.839799 -3.7807 
-0.901028 96.9646 -12.9337 129.92 -85.2743 129.724 -174.237 2.31135 91.6616 -12.8244 5.41859 2.21522 65.1677 2.56788 -1.58931 27.7789 -0.0832713 1.55118 174.172 2.01341 86.5604 -16.1266 -3.75597 -0.161799 68.0413 -2.54008 4.16306 28.1585 0.217389 -0.648788 -0.333381 6.95512 -90.1493 12.9631 -0.733501 -0.209265 1.29236 -0.741998 -0.176795 -21.244 -0.636702 -0.420052 -1.23134 -0.636697 -0.420053 99.5313 -51.3224 -86.212 25.6587 -22.8915 -7.05276 11.595 13.503 -50.7492 -0.153797 -0.0519162 -10.7491 -83.9377 -52.4858 87.8776 -25.5347 15.5395 -20.282 -20.4367 -16.5957 -39.9524 -5.53258 0.0844216 -10.7149 12.7759 -0.674878 3.84033 -20.92 -1.05388 -3.85704 
-0.90215 96.9391 -13.042 128.164 -85.5332 127.69 -174.299 2.55108 91.4119 -12.6577 5.55673 2.04326 64.9666 2.53598 -1.32031 27.8839 -0.125318 1.80417 174.124 2.61138 86.2759 -16.549 -4.09546 -0.167189 68.0875 -2.56333 3.98675 28.4189 0.177018 -0.929245 -0.329617 6.88204 -90.1016 13.1097 -0.703103 -0.116537 1.43898 -0.707545 -0.0854874 -21.0974 -0.635576 -0.322474 -1.0848 -0.635574 -0.322476 99.7354 -50.3592 -85.9436 24.0623 -24.8433 -10.2703 11.8423 13.7375 -51.0004 -1.53351 0.0131364 -10.1952 -83.5495 -51.6969 88.3721 -24.5434 16.1036 -23.5753 -21.3114 -17.1802 -40.7764 -4.83881 0.0504789 -10.9187 12.6269 -0.447646 3.5515 -21.8133 -0.758524 -3.63392 
-0.882814 96.9668 -13.162 128.301 -85.4452 127.867 -174.357 2.50848 91.4017 -12.5381 5.30625 2.11432 64.7258 2.25682 -1.73509 28.1409 -0.149718 1.79966 174.079 2.48696 86.2919 -16.2724 -4.1455 -0.0998795 68.01 -2.60122 3.99736 28.1819 0.264538 -1.20193 -0.334311 6.83673 -90.0931 13.2004 -0.708293 -0.0980341 1.52962 -0.711927 -0.0667661 -21.0069 -0.646092 -0.306382 -0.994217 -0.646085 -0.30638 100.039 -48.8879 -85.5324 21.4443 -26.9404 -14.6264 13.9985 15.3456 -52.3273 -2.52969 0.0681624 -10.8244 -83.5316 -50.993 88.3282 -22.2208 16.6763 -27.7829 -22.0379 -17.1416 -42.4115 -4.67525 0.0355676 -10.6376 11.7369 -0.437294 3.42047 -21.742 -0.629582 -4.03217 
